<svg id="visual" viewBox="0 0 360 260" width="360" height="260" xmlns="http://www.w3.org/2000/svg" xmlns:xlink="http://www.w3.org/1999/xlink" version="1.1"><rect x="0" y="0" width="360" height="260" fill="#232612"></rect><g transform="translate(180 130)"><path d="M93.1 -161.3C121.3 -145.1 145.1 -121.3 161.3 -93.1C177.6 -65 186.3 -32.5 186.3 0C186.3 32.5 177.6 65 161.3 93.1C145.1 121.3 121.3 145.1 93.1 161.3C65 177.6 32.5 186.3 0 186.3C-32.5 186.3 -65 177.6 -93.1 161.3C-121.3 145.1 -145.1 121.3 -161.3 93.1C-177.6 65 -186.3 32.5 -186.3 0C-186.3 -32.5 -177.6 -65 -161.3 -93.1C-145.1 -121.3 -121.3 -145.1 -93.1 -161.3C-65 -177.6 -32.5 -186.3 0 -186.3C32.5 -186.3 65 -177.6 93.1 -161.3" fill="none" stroke="#829726" stroke-width="23"></path></g></svg>